<svg width="1627" height="297" viewBox="0 0 1627 297" fill="none" xmlns="http://www.w3.org/2000/svg">
<g clip-path="url(#clip0_1_342)">
<mask id="mask0_1_342" style="mask-type:luminance" maskUnits="userSpaceOnUse" x="0" y="0" width="265" height="297">
<path d="M264.393 0H0V296.476H264.393V0Z" fill="white"/>
</mask>
<g mask="url(#mask0_1_342)">
<path fill-rule="evenodd" clip-rule="evenodd" d="M202.044 227.299C192.602 243.624 180.053 258.376 164.01 270.879C155.67 277.398 146.389 283.295 136.113 288.486L131.231 290.952L126.358 288.486C116.081 283.29 106.801 277.394 98.461 270.879C82.422 258.376 69.8683 243.624 60.4265 227.299C69.8591 241.102 82.4174 253.582 98.461 264.167C106.801 269.685 116.081 274.669 126.358 279.063L131.231 281.156L136.113 279.063C146.394 274.669 155.665 269.681 164.01 264.167C180.049 253.582 192.602 241.102 202.044 227.299Z" fill="white"/>
<path fill-rule="evenodd" clip-rule="evenodd" d="M264.393 197.563L232.425 211.73L226.008 209.434L222.398 208.143L220.858 207.599L219.835 207.249L218.811 206.894L218.042 206.631L217.424 206.428C216.05 210.01 214.552 213.556 212.929 217.046C197.217 250.839 171.497 276.108 138.34 292.875L131.24 296.462L124.14 292.875C90.9878 276.108 65.2718 250.839 49.5509 217.046C47.8728 213.445 46.3422 209.794 44.9268 206.096L43.3271 206.627L42.5618 206.889L41.5337 207.24L40.5148 207.59L38.975 208.134L35.3606 209.425L28.9477 211.721L0 198.937L0.811403 189.707C1.50294 181.888 2.18987 174.074 2.87679 166.25C3.56833 158.426 4.27831 150.607 4.96984 142.779L5.40321 137.883L10.0088 136.164C16.2649 133.826 22.5579 131.576 28.9339 129.589C30.1279 129.221 31.3497 128.953 32.5668 128.824C33.0508 107.981 36.1858 87.1429 41.3124 66.9961L43.2118 59.5367L50.2655 56.4571C55.0094 54.3871 59.9701 52.5245 65.092 50.8741C72.7497 21.6036 99.3877 0 131.074 0C162.76 0 189.315 21.5483 197.019 50.7634C202.27 52.4461 207.346 54.3363 212.2 56.4617L219.259 59.5413L221.153 67.0007C226.294 87.1936 229.433 108.092 229.904 128.981C230.752 129.128 231.596 129.336 232.425 129.589C238.801 131.581 238.972 132.171 245.233 134.504L249.838 136.224L264.398 197.563H264.393Z" fill="white"/>
<path fill-rule="evenodd" clip-rule="evenodd" d="M246.602 138.685L244.025 137.722C241.259 136.689 239.701 136.002 238.267 135.384C236.243 131.982 232.891 127.169 231.167 124.08C229.272 120.687 227.368 117.303 225.469 113.924C228.369 111.549 231.273 109.189 234.182 106.842C237.082 104.5 239.986 102.163 242.895 99.8348C240.351 99.1341 237.801 98.4425 235.252 97.7464C230.775 96.5616 226.294 95.4689 221.794 94.4639C220.407 85.6952 218.599 76.9265 216.382 68.2224L215.082 63.0958L210.232 60.9797C204.939 58.67 199.365 56.6322 193.584 54.8573C187.448 25.9695 161.797 4.29211 131.079 4.29211C100.36 4.29211 74.6399 26.0202 68.5452 54.9587C62.8838 56.7106 57.4299 58.7114 52.2387 60.9751L47.3934 63.0912L46.0841 68.2178C43.8665 76.9173 42.0593 85.6768 40.6762 94.4455C36.1582 95.4551 31.6586 96.5477 27.1636 97.7372C24.6188 98.4379 22.0739 99.1295 19.5475 99.8302C22.4289 102.158 25.3564 104.496 28.2378 106.838C31.1192 109.184 34.0421 111.545 36.9512 113.919C35.0517 117.298 33.1523 120.682 31.2529 124.089C29.3535 127.487 27.4541 130.88 25.5546 134.283C25.6007 134.269 25.6468 134.26 25.6883 134.25C20.8338 135.855 16.016 137.593 11.2214 139.382L8.64426 140.345L8.39992 143.084C7.71299 150.912 7.00302 158.731 6.31148 166.554C5.62455 174.373 4.93302 182.192 4.2507 190.011L3.65137 196.793L29.0815 208.042L34.2035 206.207L34.4616 206.11L34.7244 206.018L34.9826 205.921L35.2408 205.829L35.4989 205.732L35.7617 205.64L36.0199 205.543L36.2781 205.451L36.5362 205.359L36.799 205.262L37.0572 205.17L37.3154 205.073L37.5782 204.981L37.8363 204.888L38.0945 204.796L38.3573 204.699L38.6155 204.607L38.8783 204.515L39.1364 204.423L39.3946 204.331L39.6574 204.238L39.9156 204.146L40.1783 204.054L40.4365 203.962L40.6993 203.87L40.9575 203.777L41.2203 203.69L41.4784 203.598L41.7412 203.51L42.004 203.418L42.2622 203.33L42.525 203.238L44.7056 202.51L46.1302 202.044L48.4768 201.343C51.7132 210.319 55.6872 218.982 60.468 227.239C69.9006 241.047 82.4589 253.527 98.5026 264.107C106.842 269.626 116.123 274.609 126.399 279.003L131.272 281.096L136.154 279.003C146.435 274.609 155.706 269.621 164.051 264.107C180.09 253.527 192.644 241.042 202.086 227.239C206.811 219.074 210.753 210.513 213.966 201.643L215.308 202.044L216.737 202.51L218.918 203.233L219.176 203.326L219.439 203.413L219.701 203.505L219.959 203.593L220.222 203.685L220.48 203.773L220.743 203.865L221.001 203.957L221.264 204.049L221.522 204.142L221.785 204.234L222.043 204.326L222.306 204.418L222.822 204.598L223.085 204.69L223.343 204.787L223.602 204.879L223.864 204.971L224.123 205.064L224.381 205.16L224.643 205.253L224.902 205.35L225.16 205.442L225.423 205.534L225.681 205.631L225.939 205.723L226.197 205.82L226.46 205.912L226.718 206.009L226.976 206.101L227.239 206.198L232.361 208.033L260.825 195.419L246.671 138.681H246.676L246.602 138.685Z" fill="#17371E"/>
<path d="M207.83 199.923L207.535 199.84L207.24 199.757L206.94 199.674L206.645 199.591L206.345 199.508L206.05 199.425L205.751 199.342L205.456 199.259L205.156 199.176L204.861 199.093L204.561 199.015L204.266 198.932L203.967 198.849L203.801 198.803C200.993 206.322 197.618 213.491 193.69 220.282C185.009 232.956 173.603 244.002 159.782 253.121C152.235 258.114 143.826 262.604 134.785 266.472L131.217 268.003L127.653 266.472C118.617 262.604 110.203 258.114 102.656 253.121C88.8257 243.997 77.4153 232.951 68.7481 220.282C64.774 213.404 61.3671 206.147 58.541 198.531L58.2505 198.614L57.9509 198.692L57.6558 198.775L57.3561 198.849L57.0611 198.932L56.7614 199.015L56.4664 199.093L56.1667 199.176L55.8716 199.259L55.572 199.342L55.2769 199.425L54.9772 199.508L54.6822 199.591L54.3825 199.674L54.2627 199.711C57.2132 207.719 60.7862 215.345 64.9677 222.578L65.0552 222.712C74.0498 235.883 85.8843 247.349 100.213 256.805C107.981 261.94 116.625 266.56 125.906 270.525L131.198 272.797L136.5 270.529C145.781 266.56 154.425 261.94 162.193 256.809C176.513 247.358 188.342 235.888 197.351 222.716L197.438 222.578C201.574 215.437 205.11 207.904 208.042 199.988L207.798 199.923H207.811H207.83ZM67.2451 64.9169C64.2761 65.9726 61.3809 67.116 58.5732 68.3423L53.1885 70.6935L51.7362 76.3964C50.3347 81.9149 49.113 87.4103 48.0803 92.8734C49.0715 92.6706 50.0673 92.4769 51.0585 92.2879C51.2337 92.251 51.4366 92.2188 51.6348 92.1773C51.3674 90.2871 51.1185 88.383 50.8741 86.4836C51.916 86.2531 52.9626 86.018 54.0137 85.7967C54.6223 83.0352 55.2815 80.2598 55.9915 77.4798L56.9182 73.8608L60.3297 72.3717C62.5611 71.3943 64.8478 70.4768 67.1806 69.6147C67.1667 69.1399 67.1621 68.6696 67.1621 68.1902C67.1621 67.0929 67.1898 66.0003 67.2451 64.9169ZM210.725 76.3918L209.278 70.6935L203.884 68.3423C200.97 67.0745 197.969 65.8897 194.889 64.8016C194.944 65.9265 194.977 67.056 194.977 68.1902C194.977 68.6281 194.977 69.0615 194.963 69.4949C197.402 70.3939 199.799 71.3528 202.127 72.3717L205.548 73.8608L206.47 77.4798C207.18 80.2598 207.839 83.0352 208.448 85.8059C209.467 86.0364 210.499 86.2623 211.537 86.4928C211.265 88.3877 211.02 90.2825 210.776 92.1819C210.951 92.2188 211.154 92.2556 211.352 92.2879C212.366 92.4815 213.376 92.6798 214.386 92.8826C213.353 87.4195 212.131 81.9195 210.725 76.3964V76.3918Z" fill="#CCA447"/>
<path fill-rule="evenodd" clip-rule="evenodd" d="M188.771 73.7732C188.54 76.212 188.162 78.6462 187.609 81.0758C187.065 83.5054 186.355 85.9166 185.479 88.3047H176.12L177.513 83.9664C176.084 85.4509 174.622 86.8939 173.133 88.3047H169.662C156.942 86.917 144.061 86.1794 131.194 86.184C123.223 86.184 115.247 86.4606 107.303 87.0092L107.58 84.6442L102.283 87.3872C99.1017 87.6546 95.9207 87.9543 92.758 88.3047H87.1981C84.2429 84.8654 81.5229 81.1819 79.1117 77.2078L81.2785 88.3047H76.6775C73.3996 79.3654 72.3162 69.6194 73.7454 59.9471V59.9701C74.6029 65.3779 76.3686 70.463 78.9227 75.2761C79.2131 67.8029 80.209 60.4911 82.3066 53.419L88.6549 51.3628C94.2748 59.9286 101.73 67.4018 110.784 73.1278L107.981 83.8189L119.382 77.8025L119.442 77.8302C126.791 81.2141 134.412 83.2887 142.032 84.1509L145.015 86.1517L144.798 84.409C156.117 85.2527 167.379 83.4455 177.72 79.3147V82.8139L180.477 78.1437C183.331 76.8713 186.102 75.4144 188.771 73.7824H188.766L188.771 73.7732Z" fill="#B3B3B3"/>
<path fill-rule="evenodd" clip-rule="evenodd" d="M126.759 73.907L119.378 77.8027L119.438 77.8303C126.786 81.2142 134.407 83.2889 142.028 84.151L126.759 73.9116V73.907ZM160.819 52.9488C164.987 49.8738 169.155 46.7988 173.322 43.7283C171.266 37.274 168.32 31.1654 164.157 25.5133C170.436 29.5426 176.075 33.9869 180.952 38.906C175.162 29.1 166.435 20.8892 155.31 15.7672C153.461 14.9143 151.59 14.172 149.709 13.5266L162.843 24.2915L142.148 16.7768L130.807 28.0074L124.763 15.9885L103.353 20.2714L117.571 12.0421C106.229 14.7668 95.7825 20.8938 87.8345 29.81L101.043 21.7882C97.1241 26.9055 93.2054 32.0229 89.2913 37.1495C92.2188 40.87 95.1509 44.5858 98.0784 48.3017L88.6551 51.3537C94.275 59.9195 101.73 67.3927 110.784 73.1187L113.615 62.2984L99.042 48.5138L120.526 46.2594L130.594 29.2798L137.957 47.6056L159.445 53.0134L142.314 64.4329L144.803 84.3953C156.121 85.239 167.384 83.4318 177.725 79.301L177.693 60.5649C172.068 58.0247 166.448 55.4845 160.828 52.9442L160.819 52.9488ZM187.07 66.9547L180.473 78.1346C183.326 76.8622 186.097 75.4053 188.767 73.7733C188.923 72.109 189.002 70.4447 189.016 68.785L187.07 66.9501V66.9547Z" fill="white"/>
<path fill-rule="evenodd" clip-rule="evenodd" d="M81.4677 50.851L80.1123 51.289L79.7066 52.6536C78.6324 56.2911 77.8072 64.2945 77.6597 68.1901C78.1945 63.0267 79.1396 57.9185 80.6148 52.9256L80.8776 52.0404L81.7536 51.7546C86.0872 50.3531 90.4208 48.947 94.7545 47.5455C90.7574 48.7764 85.3634 49.5924 81.4677 50.851ZM141.465 13.6648L131.286 25.0751L141.705 14.762L153.793 19.1463L141.465 13.6602V13.6648ZM171.838 35.0794C173.059 37.7072 174.106 40.4134 174.991 43.198L175.374 44.3921L174.36 45.1343C171.086 47.5501 167.808 49.9658 164.535 52.377C167.486 50.2701 172.077 47.9927 174.917 45.895L176.48 44.747C175.72 42.3728 173.525 38.3157 171.833 35.0701L171.838 35.0794ZM121.577 47.9143L103.007 49.8644L122.149 48.8087L130.276 33.2353L121.572 47.9097L121.577 47.9143Z" fill="white"/>
<path fill-rule="evenodd" clip-rule="evenodd" d="M73.9805 96.3174C74.6121 98.203 75.2391 100.093 75.8707 101.983C74.3586 102.223 72.8464 102.477 71.3389 102.744C71.952 100.646 72.5652 98.5441 73.183 96.4511C73.4504 96.405 73.7131 96.3589 73.9851 96.3174H73.9805Z" fill="#CCA447"/>
<path fill-rule="evenodd" clip-rule="evenodd" d="M106.474 92.4862C106.202 92.5047 105.93 92.5231 105.667 92.5415C105.044 94.5839 104.427 96.6216 103.809 98.6639C105.335 98.5441 106.856 98.4334 108.382 98.3366C107.746 96.3865 107.11 94.4363 106.478 92.4908L106.474 92.4862ZM106.474 92.4862C106.202 92.5047 105.93 92.5231 105.667 92.5415C105.044 94.5839 104.427 96.6216 103.809 98.6639C105.335 98.5441 106.856 98.4334 108.382 98.3366C107.746 96.3865 107.11 94.4363 106.478 92.4908L106.474 92.4862ZM106.474 92.4862C106.202 92.5047 105.93 92.5231 105.667 92.5415C105.044 94.5839 104.427 96.6216 103.809 98.6639C105.335 98.5441 106.856 98.4334 108.382 98.3366C107.746 96.3865 107.11 94.4363 106.478 92.4908L106.474 92.4862ZM122.997 91.2461C122.01 91.2691 121.019 91.2968 120.032 91.329V101.186C121.019 101.153 122.01 101.126 122.997 101.103C125.399 101.047 126.353 100.015 126.353 97.599V94.7176C126.353 92.2557 125.417 91.1861 122.997 91.2414V91.2461ZM122.997 91.2461C122.01 91.2691 121.019 91.2968 120.032 91.329V101.186C121.019 101.153 122.01 101.126 122.997 101.103C125.399 101.047 126.353 100.015 126.353 97.599V94.7176C126.353 92.2557 125.417 91.1861 122.997 91.2414V91.2461ZM106.474 92.4862C106.202 92.5047 105.93 92.5231 105.667 92.5415C105.044 94.5839 104.427 96.6216 103.809 98.6639C105.335 98.5441 106.856 98.4334 108.382 98.3366C107.746 96.3865 107.11 94.4363 106.478 92.4908L106.474 92.4862ZM106.474 92.4862C106.202 92.5047 105.93 92.5231 105.667 92.5415C105.044 94.5839 104.427 96.6216 103.809 98.6639C105.335 98.5441 106.856 98.4334 108.382 98.3366C107.746 96.3865 107.11 94.4363 106.478 92.4908L106.474 92.4862ZM122.997 91.2461C122.01 91.2691 121.019 91.2968 120.032 91.329V101.186C121.019 101.153 122.01 101.126 122.997 101.103C125.399 101.047 126.353 100.015 126.353 97.599V94.7176C126.353 92.2557 125.417 91.1861 122.997 91.2414V91.2461ZM122.997 91.2461C122.01 91.2691 121.019 91.2968 120.032 91.329V101.186C121.019 101.153 122.01 101.126 122.997 101.103C125.399 101.047 126.353 100.015 126.353 97.599V94.7176C126.353 92.2557 125.417 91.1861 122.997 91.2414V91.2461ZM106.474 92.4862C106.202 92.5047 105.93 92.5231 105.667 92.5415C105.044 94.5839 104.427 96.6216 103.809 98.6639C105.335 98.5441 106.856 98.4334 108.382 98.3366C107.746 96.3865 107.11 94.4363 106.478 92.4908L106.474 92.4862ZM219.757 112.887C224.422 108.885 229.115 104.892 233.804 100.941C226.225 98.876 218.378 97.0365 210.315 95.4506C209.135 98.332 207.959 101.223 206.802 104.109C205.649 106.995 204.469 109.89 203.312 112.785C203.796 108.742 204.335 104.703 204.824 100.656C205.308 96.617 205.843 92.5784 206.359 88.526C182.132 83.3764 156.642 80.5042 131.194 80.5088C105.75 80.5088 80.2737 83.3764 56.0514 88.5168C56.5401 92.5738 57.0703 96.6124 57.5636 100.651C58.0523 104.694 58.5824 108.733 59.0942 112.785C57.914 109.89 56.743 106.999 55.5812 104.104C54.4286 101.218 53.2484 98.3274 52.0912 95.4414C44.0233 97.0365 36.1813 98.8714 28.5974 100.937C33.2676 104.897 37.9562 108.885 42.6448 112.887C41.1788 115.57 39.7127 118.257 38.2651 120.945C36.8221 123.628 35.3745 126.321 33.9315 129.009C46.7341 125.855 57.3792 123.73 71.8646 121.849C70.0251 119.774 68.1764 117.69 66.3553 115.62C87.3365 112.024 109.272 110.005 131.185 110.005C153.097 110.005 175.056 112.02 196.037 115.616C194.188 117.686 192.349 119.765 190.528 121.844C205.018 123.725 215.667 125.846 228.461 129.009C226.999 126.321 225.529 123.628 224.086 120.945C222.643 118.262 221.195 115.574 219.747 112.891L219.757 112.887ZM77.9593 108.318C77.5951 107.216 77.2263 106.119 76.8667 105.021C74.686 105.363 72.5146 105.727 70.3386 106.109C69.979 107.331 69.6148 108.548 69.2506 109.77C68.0657 109.982 66.8809 110.203 65.6961 110.429C67.388 104.657 69.08 98.8991 70.7765 93.1501C72.7221 92.8089 74.6722 92.4862 76.6223 92.1773C78.3281 97.3546 80.0385 102.546 81.7489 107.751C80.4857 107.931 79.2225 108.115 77.9547 108.313L77.9593 108.318ZM93.2515 106.308C91.5964 104.256 89.9367 102.209 88.277 100.181C88.0096 100.213 87.7469 100.25 87.4749 100.278V106.99C86.1748 107.151 84.8793 107.322 83.5792 107.502V91.1585C84.8793 90.9833 86.1748 90.8081 87.4749 90.6421V97.0365C87.7192 97.0042 87.9589 96.972 88.2033 96.9397C89.8584 94.6069 91.518 92.2787 93.1777 89.9736C94.6115 89.8169 96.0407 89.6647 97.4745 89.531C95.5612 92.1635 93.648 94.8144 91.7347 97.4745V98.3043C93.7586 100.803 95.7825 103.311 97.8156 105.842C96.2896 105.99 94.7683 106.142 93.2469 106.308H93.2515ZM110.48 104.86C110.116 103.726 109.752 102.596 109.378 101.467C107.184 101.601 104.994 101.762 102.799 101.937C102.435 103.122 102.066 104.307 101.697 105.492C100.503 105.598 99.3047 105.699 98.1061 105.81C99.8119 100.199 101.522 94.6023 103.233 89.0193C105.201 88.8626 107.165 88.7196 109.129 88.5952C110.853 93.9384 112.573 99.2863 114.293 104.653C113.02 104.717 111.748 104.786 110.475 104.855L110.48 104.86ZM130.299 97.5667C130.299 102.306 127.722 104.238 122.997 104.344C120.71 104.399 118.423 104.477 116.137 104.574V88.2263C118.423 88.1295 120.71 88.0558 122.997 88.0004C127.676 87.899 130.299 89.8445 130.299 94.6899V97.5713V97.5667ZM145.098 104.533C141.041 104.371 136.98 104.279 132.923 104.256V87.9128C136.938 87.9313 140.958 88.0235 144.974 88.1848V91.4028C142.263 91.2922 139.552 91.223 136.841 91.1769V94.4179C139.188 94.4594 141.53 94.5239 143.877 94.6069V97.7004C141.535 97.6128 139.193 97.5529 136.841 97.516V101.075C139.594 101.121 142.346 101.195 145.094 101.31V104.528L145.098 104.533ZM166.324 106.036C165.038 105.902 163.751 105.782 162.465 105.667V93.7356C162.271 93.7218 162.078 93.7033 161.88 93.6849C160.921 96.2067 159.962 98.7377 158.998 101.273C157.597 101.163 156.191 101.057 154.789 100.96C153.826 98.2859 152.862 95.612 151.898 92.9426C151.714 92.9288 151.525 92.9196 151.336 92.9057V104.832C150.119 104.763 148.906 104.694 147.689 104.643V88.2955C149.796 88.3969 151.903 88.5168 154.005 88.6551C154.964 91.3198 155.914 93.9891 156.868 96.6631C157.076 96.6769 157.279 96.6908 157.481 96.7092C158.445 94.1828 159.404 91.6564 160.367 89.1346C162.354 89.3005 164.337 89.4849 166.324 89.6878V106.031V106.036ZM178.91 94.4456C177.896 94.3073 176.881 94.1689 175.867 94.0399V103.897C176.877 104.03 177.891 104.164 178.91 104.302V107.548C175.572 107.082 172.239 106.672 168.892 106.308V103.062C169.915 103.173 170.943 103.293 171.967 103.412V93.5558C170.943 93.4359 169.915 93.3207 168.892 93.2054V89.9598C172.239 90.324 175.572 90.7343 178.91 91.1953V94.441V94.4456ZM192.671 109.733C192.312 108.511 191.943 107.294 191.583 106.077C189.412 105.695 187.236 105.33 185.055 104.989C184.696 106.086 184.327 107.188 183.963 108.286C182.773 108.106 181.584 107.931 180.394 107.76C182.096 102.555 183.797 97.3638 185.493 92.1819C187.443 92.4908 189.394 92.8135 191.339 93.1547C193.045 98.9037 194.746 104.662 196.443 110.439C195.189 110.199 193.925 109.964 192.671 109.738V109.733ZM187.895 96.2758C187.282 98.166 186.669 100.061 186.056 101.951C187.568 102.191 189.08 102.444 190.592 102.707C189.961 100.609 189.329 98.5026 188.702 96.4141C188.435 96.368 188.172 96.3219 187.9 96.2758H187.895ZM122.997 91.2461C122.01 91.2691 121.019 91.2968 120.032 91.329V101.186C121.019 101.153 122.01 101.126 122.997 101.103C125.399 101.047 126.353 100.015 126.353 97.599V94.7176C126.353 92.2557 125.417 91.1861 122.997 91.2414V91.2461ZM105.662 92.5415C105.04 94.5839 104.422 96.6216 103.804 98.6639C105.33 98.5441 106.852 98.4334 108.378 98.3366C107.741 96.3865 107.105 94.4363 106.474 92.4908C106.202 92.5093 105.93 92.5277 105.667 92.5461L105.662 92.5415ZM106.474 92.4862C106.202 92.5047 105.93 92.5231 105.667 92.5415C105.044 94.5839 104.427 96.6216 103.809 98.6639C105.335 98.5441 106.856 98.4334 108.382 98.3366C107.746 96.3865 107.11 94.4363 106.478 92.4908L106.474 92.4862ZM122.997 91.2461C122.01 91.2691 121.019 91.2968 120.032 91.329V101.186C121.019 101.153 122.01 101.126 122.997 101.103C125.399 101.047 126.353 100.015 126.353 97.599V94.7176C126.353 92.2557 125.417 91.1861 122.997 91.2414V91.2461ZM122.997 91.2461C122.01 91.2691 121.019 91.2968 120.032 91.329V101.186C121.019 101.153 122.01 101.126 122.997 101.103C125.399 101.047 126.353 100.015 126.353 97.599V94.7176C126.353 92.2557 125.417 91.1861 122.997 91.2414V91.2461ZM106.474 92.4862C106.202 92.5047 105.93 92.5231 105.667 92.5415C105.044 94.5839 104.427 96.6216 103.809 98.6639C105.335 98.5441 106.856 98.4334 108.382 98.3366C107.746 96.3865 107.11 94.4363 106.478 92.4908L106.474 92.4862ZM106.474 92.4862C106.202 92.5047 105.93 92.5231 105.667 92.5415C105.044 94.5839 104.427 96.6216 103.809 98.6639C105.335 98.5441 106.856 98.4334 108.382 98.3366C107.746 96.3865 107.11 94.4363 106.478 92.4908L106.474 92.4862ZM122.997 91.2461C122.01 91.2691 121.019 91.2968 120.032 91.329V101.186C121.019 101.153 122.01 101.126 122.997 101.103C125.399 101.047 126.353 100.015 126.353 97.599V94.7176C126.353 92.2557 125.417 91.1861 122.997 91.2414V91.2461ZM122.997 91.2461C122.01 91.2691 121.019 91.2968 120.032 91.329V101.186C121.019 101.153 122.01 101.126 122.997 101.103C125.399 101.047 126.353 100.015 126.353 97.599V94.7176C126.353 92.2557 125.417 91.1861 122.997 91.2414V91.2461ZM106.474 92.4862C106.202 92.5047 105.93 92.5231 105.667 92.5415C105.044 94.5839 104.427 96.6216 103.809 98.6639C105.335 98.5441 106.856 98.4334 108.382 98.3366C107.746 96.3865 107.11 94.4363 106.478 92.4908L106.474 92.4862Z" fill="#CCA447"/>
<path d="M94.8373 185.599C98.0415 185.115 99.9593 186.53 99.9593 189.467V189.845C98.9958 189.97 98.0368 190.099 97.0733 190.237V189.859C97.0733 188.476 96.3034 187.886 94.8143 188.112C94.7083 188.13 94.6022 188.144 94.4916 188.162C93.044 188.384 92.2003 189.26 92.2003 190.823V193.547C92.2003 195.179 93.0578 195.733 94.5054 195.516C94.6068 195.502 94.7082 195.484 94.8097 195.47C96.2942 195.244 97.1194 194.451 97.1194 192.994V192.745C98.083 192.607 99.0419 192.478 100.005 192.353V192.602C100.005 195.691 98.0507 197.494 94.8281 197.978C94.7175 197.996 94.616 198.01 94.5054 198.028C91.3382 198.512 89.3235 197.305 89.3235 194.036V191.311C89.3235 188.19 91.3382 186.139 94.5054 185.65C94.616 185.631 94.7175 185.618 94.8281 185.599H94.8373Z" fill="white"/>
<path d="M109 184.05C110.263 187.937 111.531 191.837 112.799 195.751C111.863 195.82 110.927 195.899 109.991 195.982C109.719 195.156 109.452 194.331 109.18 193.506C107.566 193.653 105.953 193.819 104.344 193.995C104.072 194.875 103.804 195.756 103.537 196.636C102.656 196.738 101.776 196.844 100.895 196.954C102.149 192.787 103.408 188.633 104.666 184.488C106.109 184.327 107.552 184.184 109 184.05ZM105.081 191.565C106.202 191.445 107.322 191.33 108.442 191.224C107.977 189.799 107.506 188.384 107.041 186.964C106.842 186.982 106.644 187.005 106.451 187.024C105.994 188.536 105.542 190.048 105.086 191.565H105.081Z" fill="white"/>
<path d="M118.165 183.377C119.544 185.982 120.917 188.596 122.296 191.228C122.42 191.228 122.549 191.219 122.674 191.215V183.179C123.541 183.147 124.407 183.124 125.274 183.101V195.119C123.992 195.152 122.711 195.193 121.429 195.244C120.06 192.621 118.686 190.007 117.317 187.411C117.192 187.416 117.063 187.425 116.939 187.434V195.47C116.067 195.521 115.196 195.576 114.325 195.64V183.622C115.606 183.534 116.883 183.456 118.165 183.386V183.377Z" fill="white"/>
<path d="M133.13 183.036C136.306 183.068 137.57 184.442 137.57 186.789V187.49C137.57 189.845 136.288 191.123 133.13 191.09C132.263 191.086 131.397 191.081 130.53 191.086V195.05C129.566 195.05 128.603 195.06 127.639 195.078V183.059C129.469 183.032 131.295 183.027 133.125 183.041L133.13 183.036ZM130.53 188.716C131.337 188.716 132.143 188.716 132.95 188.716C134.103 188.725 134.665 188.375 134.665 187.351V186.812C134.665 185.807 134.107 185.424 132.95 185.41C132.143 185.406 131.337 185.406 130.53 185.41V188.711V188.716Z" fill="white"/>
<path d="M145.79 183.465C147.058 187.549 148.325 191.639 149.593 195.742C148.657 195.673 147.717 195.603 146.781 195.544C146.509 194.677 146.242 193.81 145.969 192.943C144.351 192.847 142.733 192.764 141.12 192.694C140.848 193.533 140.58 194.373 140.308 195.212C139.423 195.179 138.538 195.152 137.657 195.129C138.92 191.155 140.184 187.194 141.447 183.239C142.894 183.299 144.342 183.377 145.794 183.46L145.79 183.465ZM141.857 190.385C142.982 190.435 144.107 190.491 145.232 190.56C144.762 189.066 144.291 187.577 143.826 186.088C143.627 186.079 143.429 186.065 143.231 186.056C142.775 187.499 142.318 188.942 141.862 190.385H141.857Z" fill="white"/>
<path d="M155.928 184.11C159.146 184.442 161.063 186.346 161.063 189.288V189.666C160.1 189.546 159.136 189.43 158.173 189.324V188.946C158.173 187.563 157.403 186.775 155.905 186.623C155.799 186.614 155.688 186.6 155.582 186.591C154.125 186.443 153.277 187.107 153.277 188.665V191.39C153.277 193.022 154.144 193.796 155.596 193.944C155.697 193.953 155.799 193.967 155.9 193.976C157.394 194.128 158.219 193.547 158.219 192.091V191.842C159.183 191.952 160.146 192.063 161.11 192.183V192.432C161.11 195.521 159.155 196.821 155.918 196.489C155.812 196.48 155.702 196.466 155.596 196.456C152.415 196.138 150.377 194.405 150.377 191.141V188.416C150.377 185.295 152.415 183.76 155.596 184.078C155.702 184.087 155.812 184.101 155.918 184.11H155.928Z" fill="white"/>
<path d="M166.084 185.549V190.246C166.264 190.274 166.444 190.297 166.619 190.325C167.836 188.937 169.053 187.559 170.27 186.189C171.321 186.36 172.368 186.54 173.414 186.724C172.017 188.278 170.616 189.841 169.214 191.417V192.026C170.699 194.266 172.179 196.516 173.663 198.785C172.552 198.586 171.437 198.397 170.321 198.213C169.104 196.369 167.887 194.534 166.67 192.713C166.471 192.685 166.278 192.653 166.079 192.625V197.558C165.125 197.42 164.166 197.286 163.212 197.157V185.138C164.166 185.267 165.125 185.396 166.079 185.539L166.084 185.549Z" fill="white"/>
<path d="M84.0908 205.419C87.2396 204.796 89.4157 206.092 89.4157 209.282V211.993C89.4157 215.169 87.235 217.17 84.0908 217.797C83.9848 217.82 83.8788 217.839 83.7727 217.862C80.6239 218.493 78.4294 217.364 78.4294 214.183V211.472C78.4294 208.282 80.6101 206.115 83.7727 205.479C83.8788 205.456 83.9848 205.437 84.0908 205.414V205.419ZM81.2832 210.946V213.404C81.2832 215.017 82.1499 215.695 83.7727 215.368C83.8695 215.349 83.9617 215.331 84.0586 215.312C85.6583 214.994 86.5527 213.971 86.5527 212.357V209.9C86.5527 208.323 85.6629 207.604 84.0586 207.922C83.9617 207.94 83.8695 207.964 83.7727 207.977C82.1545 208.3 81.2832 209.37 81.2832 210.946Z" fill="white"/>
<path d="M94.3671 203.787V208.484C94.5469 208.457 94.7267 208.429 94.9019 208.402C96.119 206.65 97.3361 204.907 98.5578 203.174C99.609 203.031 100.66 202.892 101.716 202.763C100.31 204.736 98.9036 206.723 97.5021 208.72V209.328C98.9912 211.122 100.476 212.929 101.969 214.75C100.849 214.888 99.7334 215.031 98.6131 215.183C97.3914 213.703 96.1743 212.237 94.9572 210.776C94.759 210.808 94.5654 210.836 94.3671 210.868V215.801C93.4128 215.948 92.4585 216.101 91.5042 216.257V204.238C92.4585 204.082 93.4128 203.925 94.3671 203.782V203.787Z" fill="white"/>
<path d="M108.092 201.897C111.278 201.588 113.477 203.114 113.477 206.304V209.015C113.477 212.191 111.278 213.975 108.092 214.28C107.981 214.289 107.875 214.303 107.769 214.312C104.583 214.621 102.361 213.27 102.361 210.094V207.383C102.361 204.192 104.57 202.242 107.769 201.933C107.88 201.924 107.986 201.91 108.092 201.901V201.897ZM105.252 207.134V209.591C105.252 211.205 106.133 211.97 107.769 211.809C107.866 211.799 107.963 211.79 108.055 211.781C109.673 211.624 110.572 210.693 110.572 209.075V206.617C110.572 205.041 109.673 204.234 108.055 204.391C107.958 204.4 107.861 204.409 107.769 204.418C106.133 204.58 105.252 205.557 105.252 207.134Z" fill="white"/>
<path d="M120.83 201.007C124.057 200.868 125.993 202.496 125.993 205.433V205.811C125.025 205.834 124.057 205.857 123.089 205.889V205.511C123.089 204.132 122.314 203.455 120.816 203.519C120.705 203.524 120.599 203.528 120.493 203.533C119.032 203.598 118.184 204.381 118.184 205.944V208.669C118.184 210.301 119.05 210.951 120.512 210.886C120.613 210.882 120.719 210.877 120.821 210.873C122.319 210.808 123.149 210.103 123.149 208.65V208.402C124.117 208.369 125.085 208.342 126.053 208.323V208.572C126.053 211.661 124.085 213.247 120.839 213.385C120.733 213.385 120.622 213.394 120.516 213.399C117.321 213.542 115.288 212.113 115.288 208.844V206.119C115.288 202.998 117.326 201.168 120.516 201.025C120.622 201.025 120.733 201.016 120.839 201.011L120.83 201.007Z" fill="white"/>
<path d="M135.126 200.997V203.386C134.375 203.372 133.623 203.367 132.867 203.358V210.605C133.619 210.605 134.37 210.619 135.126 210.633V213.021C132.655 212.979 130.18 212.979 127.704 213.016V210.628C128.465 210.619 129.221 210.61 129.977 210.605V203.358C129.216 203.362 128.46 203.367 127.704 203.381V200.993C130.175 200.956 132.651 200.961 135.126 201.002V200.997Z" fill="white"/>
<path d="M141.871 201.2C142.572 203.146 143.277 205.096 143.983 207.042C144.13 207.051 144.282 207.055 144.434 207.065C145.144 205.188 145.854 203.316 146.56 201.449C148.026 201.542 149.492 201.648 150.958 201.767V213.786C150.008 213.708 149.063 213.639 148.113 213.57V204.796C147.971 204.787 147.828 204.778 147.68 204.764C146.97 206.636 146.26 208.512 145.55 210.389C144.517 210.329 143.485 210.273 142.447 210.223C141.737 208.268 141.028 206.322 140.318 204.377C140.179 204.377 140.041 204.368 139.903 204.363V213.136C139.004 213.104 138.109 213.076 137.215 213.053V201.034C138.768 201.071 140.318 201.127 141.871 201.196H141.876L141.871 201.2Z" fill="white"/>
<path d="M158.127 202.284C160.967 202.602 162.921 204.142 162.921 206.493V207.175C161.981 207.051 161.045 206.935 160.105 206.82V206.138C160.105 205.276 159.404 204.649 158.113 204.506C158.044 204.497 157.965 204.492 157.896 204.483C156.619 204.34 155.918 204.773 155.918 205.423V205.603C155.918 206.396 156.513 206.696 158.938 207.544C161.76 208.554 163.12 209.678 163.12 211.684V211.864C163.12 213.805 161.506 215.045 158.145 214.662C158.062 214.653 157.975 214.644 157.896 214.634C154.554 214.266 152.876 212.652 152.876 210.273V209.642C153.821 209.725 154.771 209.817 155.72 209.914V210.541C155.72 211.707 156.49 212.246 157.933 212.408C158.002 212.417 158.076 212.422 158.15 212.431C159.533 212.588 160.271 212.251 160.271 211.509V211.366C160.271 210.633 159.551 210.158 157.057 209.328C154.452 208.48 153.083 207.447 153.083 205.455V205.183C153.083 203.017 154.9 201.91 157.887 202.242C157.97 202.251 158.058 202.261 158.136 202.27L158.127 202.284Z" fill="white"/>
<path d="M167.901 203.759V208.457C168.08 208.485 168.26 208.512 168.435 208.54C169.652 207.161 170.87 205.797 172.082 204.437C173.133 204.617 174.18 204.801 175.222 204.995C173.825 206.534 172.428 208.088 171.026 209.656V210.264C172.511 212.514 173.991 214.782 175.471 217.055C174.359 216.848 173.248 216.649 172.133 216.456C170.916 214.602 169.703 212.758 168.486 210.928C168.288 210.896 168.094 210.868 167.896 210.836V215.769C166.942 215.621 165.987 215.483 165.033 215.349V203.33C165.987 203.464 166.946 203.607 167.896 203.754L167.901 203.759Z" fill="white"/>
<path d="M184.041 206.793V209.181C183.303 209.015 182.566 208.853 181.823 208.697V215.944C182.561 216.101 183.303 216.262 184.041 216.428V218.816C181.611 218.272 179.177 217.77 176.738 217.299V214.911C177.485 215.054 178.237 215.202 178.979 215.354V208.107C178.232 207.954 177.485 207.812 176.738 207.664V205.276C179.177 205.742 181.611 206.244 184.041 206.793Z" fill="white"/>
<path d="M97.3776 221.282C99.8672 220.932 101.43 221.642 101.43 223.684V224.081C101.43 224.998 101.015 225.819 100.084 226.46V226.856C101.14 227.188 101.753 227.921 101.753 229.175V229.604C101.753 231.632 100.264 232.9 97.6081 233.269C95.6257 233.55 93.6433 233.85 91.6655 234.177V222.158C93.5649 221.845 95.469 221.55 97.373 221.282H97.3776ZM94.4732 226.626C95.3399 226.492 96.202 226.363 97.0687 226.243C98.0738 226.1 98.5947 225.602 98.5947 224.809V224.468C98.5947 223.698 98.0738 223.352 97.0365 223.5C96.1836 223.62 95.3261 223.749 94.4778 223.878V226.621L94.4732 226.626ZM94.4732 231.559C95.3906 231.42 96.3127 231.282 97.2301 231.153C98.3412 230.996 98.9128 230.508 98.9128 229.627V229.286C98.9128 228.424 98.3412 228.069 97.1932 228.235C96.285 228.364 95.3814 228.497 94.4732 228.636V231.559Z" fill="white"/>
<path d="M109.516 219.881C112.126 219.646 113.693 220.785 113.693 223.094V223.703C113.693 225.173 113.006 226.298 111.822 226.967C112.596 228.484 113.371 230.005 114.145 231.526C113.117 231.596 112.089 231.679 111.066 231.766C110.365 230.401 109.664 229.041 108.959 227.681C108.207 227.751 107.46 227.824 106.709 227.898V232.167C105.75 232.264 104.791 232.37 103.832 232.476V220.457C105.722 220.24 107.617 220.047 109.512 219.876L109.516 219.881ZM106.709 225.602C107.511 225.519 108.318 225.441 109.12 225.367C110.167 225.27 110.83 224.786 110.83 223.818V223.422C110.83 222.435 110.167 222.094 109.12 222.191C108.318 222.264 107.516 222.343 106.709 222.426V225.602Z" fill="white"/>
<path d="M124.278 219.005V221.73C122.37 223.938 120.466 226.17 118.562 228.419V228.867C120.498 228.765 122.434 228.687 124.371 228.632V231.02C121.355 231.103 118.345 231.246 115.334 231.444V228.719C117.239 226.442 119.143 224.187 121.051 221.951V221.499C119.179 221.578 117.312 221.679 115.445 221.799V219.411C118.391 219.217 121.337 219.079 124.283 218.996L124.278 219.005Z" fill="white"/>
<path d="M135.159 218.936V221.301C133.162 221.269 131.162 221.26 129.165 221.278V223.666C130.894 223.652 132.618 223.657 134.347 223.675V225.953C132.618 225.93 130.894 225.925 129.165 225.944V228.562C131.194 228.544 133.222 228.553 135.251 228.585V230.95C132.259 230.9 129.271 230.909 126.279 230.969V218.95C129.239 218.89 132.203 218.885 135.163 218.931L135.159 218.936Z" fill="white"/>
<path d="M142.106 218.968C144.955 219.097 146.919 220.508 146.919 222.859V223.542C145.974 223.482 145.034 223.426 144.089 223.376V222.693C144.089 221.831 143.388 221.255 142.088 221.195C142.019 221.195 141.945 221.19 141.871 221.186C140.589 221.13 139.884 221.61 139.884 222.255V222.435C139.884 223.228 140.479 223.486 142.918 224.178C145.748 224.998 147.118 226.036 147.118 228.041V228.221C147.118 230.162 145.495 231.508 142.125 231.351C142.042 231.351 141.954 231.342 141.871 231.342C138.515 231.199 136.837 229.687 136.837 227.317V226.69C137.786 226.713 138.736 226.741 139.69 226.773V227.405C139.69 228.571 140.465 229.06 141.908 229.125C141.977 229.129 142.051 229.129 142.125 229.134C143.512 229.198 144.255 228.806 144.255 228.073V227.931C144.255 227.197 143.535 226.773 141.027 226.109C138.413 225.432 137.04 224.496 137.04 222.5V222.228C137.04 220.061 138.861 218.835 141.857 218.964C141.94 218.964 142.028 218.973 142.111 218.973L142.106 218.968Z" fill="white"/>
<path d="M151.926 219.789V224.487C152.106 224.501 152.286 224.519 152.465 224.533C153.687 223.071 154.914 221.624 156.135 220.185C157.191 220.296 158.242 220.411 159.298 220.536C157.892 222.172 156.481 223.818 155.075 225.478V226.086C156.569 228.239 158.058 230.402 159.551 232.582C158.431 232.449 157.311 232.329 156.191 232.209C154.969 230.439 153.747 228.677 152.521 226.926C152.323 226.907 152.124 226.889 151.926 226.875V231.808C150.967 231.725 150.008 231.646 149.045 231.577V219.558C150.004 219.628 150.967 219.706 151.926 219.789Z" fill="white"/>
<path d="M165.664 221.186C168.836 221.642 171.012 223.684 171.012 226.879V229.59C171.012 232.767 168.832 234.025 165.664 233.569C165.558 233.555 165.452 233.537 165.342 233.523C162.17 233.071 159.943 231.185 159.943 228.009V225.298C159.943 222.108 162.151 220.688 165.342 221.144C165.448 221.158 165.554 221.177 165.664 221.19V221.186ZM162.834 225.745V228.203C162.834 229.821 163.714 230.789 165.346 231.019C165.443 231.033 165.535 231.047 165.632 231.061C167.246 231.296 168.14 230.572 168.14 228.959V226.501C168.14 224.925 167.246 223.901 165.632 223.671C165.535 223.657 165.443 223.643 165.346 223.629C163.714 223.399 162.834 224.164 162.834 225.745Z" fill="white"/>
<path d="M35.7431 139.128C35.047 138.667 34.2633 138.437 33.3919 138.437C32.7834 138.437 32.1241 138.547 31.428 138.778C25.2087 140.792 18.9895 142.964 12.7657 145.26C12.3462 152.406 11.756 159.528 11.1659 166.642C11.0461 168.09 10.9216 169.537 10.8063 170.985C10.7372 171.764 10.6726 172.548 10.6127 173.336C10.5021 174.659 10.396 175.982 10.2946 177.301C10.2254 178.191 10.1563 179.076 10.0871 179.966C10.018 180.851 9.94883 181.741 9.8889 182.626C9.76442 184.401 9.63994 186.171 9.5293 187.941C10.9723 187.586 12.4245 187.227 13.8768 186.867C15.3244 186.512 16.7766 186.153 18.2334 185.793C18.5654 180.574 18.9619 175.378 19.3537 170.192C20.0407 169.989 20.7276 169.791 21.4099 169.597C22.0968 169.394 22.7791 169.196 23.4661 169.002C23.692 168.938 23.9133 168.869 24.1346 168.804C24.7938 168.592 25.4346 168.352 26.057 168.085C26.4719 167.91 26.8776 167.721 27.2787 167.518C29.0721 166.61 30.6949 165.457 32.1472 164.037C32.3085 163.88 32.4653 163.719 32.6266 163.553C32.7096 163.466 32.788 163.383 32.8756 163.295C32.9493 163.207 33.0323 163.12 33.1107 163.032C33.1107 163.028 33.1199 163.023 33.1199 163.018C33.2674 162.857 33.4058 162.7 33.5395 162.534C33.5625 162.502 33.5856 162.474 33.6086 162.447C33.7239 162.299 33.8437 162.152 33.959 162.004C34.1065 161.806 34.2587 161.603 34.397 161.405C34.5214 161.225 34.6459 161.045 34.7566 160.861C34.7658 160.847 34.7704 160.838 34.775 160.828C34.8856 160.653 34.9963 160.478 35.0931 160.303C35.1853 160.146 35.2683 159.989 35.3559 159.828C35.4066 159.731 35.4573 159.639 35.4988 159.542C35.568 159.418 35.6325 159.289 35.6832 159.164C35.7432 159.03 35.7985 158.906 35.8538 158.777C35.9091 158.652 35.9598 158.519 36.0105 158.394C36.1166 158.131 36.2042 157.873 36.2872 157.611C36.6375 156.532 36.845 155.416 36.9049 154.273C37.117 150.442 37.3014 146.638 37.4536 142.839C37.5227 141.166 36.9464 139.921 35.7431 139.128ZM19.9623 162.027C19.9623 161.99 19.9715 161.958 19.9715 161.921C20.2619 158.021 20.5386 154.134 20.7783 150.243C23.4661 149.34 26.1585 148.459 28.8508 147.602C28.6895 150.663 28.5051 153.729 28.316 156.799C28.21 158.394 27.1958 159.598 25.2595 160.427C25.0658 160.515 24.863 160.593 24.6509 160.667C24.4573 160.736 24.2544 160.805 24.047 160.87C23.1387 161.147 22.2351 161.423 21.3269 161.709C20.8705 161.847 20.4141 161.986 19.9577 162.133C19.9577 162.096 19.9669 162.064 19.9669 162.027H19.9623ZM31.5386 162.516C29.2427 164.909 26.389 166.605 23.0511 167.559C21.6773 167.951 20.3034 168.348 18.9296 168.749L17.9384 169.039L17.86 170.072C17.4866 174.959 17.127 179.754 16.8089 184.599C14.9233 185.065 13.0377 185.53 11.1521 185.996C11.5578 179.929 12.0742 173.783 12.5721 167.822C12.6781 166.577 12.7795 165.319 12.8856 164.065C14.7204 163.484 16.5738 162.922 18.4455 162.373L18.3072 164.208L20.4049 163.558C21.7649 163.134 23.1249 162.714 24.4803 162.299C26.8131 161.589 28.1639 160.543 28.9154 159.45C30.7733 158.961 32.6543 158.491 34.5491 158.03C33.9083 159.598 32.9079 161.082 31.534 162.511L31.5386 162.516Z" fill="white"/>
<path d="M41.1326 135.758C40.9482 143.13 40.6024 150.539 40.1875 158.035C40.0768 160.077 39.957 162.124 39.8371 164.176C39.6942 166.674 39.5374 169.178 39.3853 171.704C39.2055 174.738 39.0211 177.79 38.8367 180.874C41.7596 180.21 44.6779 179.565 47.5915 178.938C47.6469 177.956 47.6976 176.969 47.7483 175.992C47.7483 175.95 47.7483 175.904 47.7575 175.867C48.1401 168.721 48.5274 161.741 48.8455 154.844C49.1867 147.602 49.4541 140.461 49.5878 133.347C46.7663 134.117 43.9448 134.924 41.128 135.758H41.1326ZM46.4251 172.88C46.3329 174.484 46.2499 176.098 46.1623 177.716C44.2491 178.131 42.3405 178.555 40.4503 178.979C40.5886 176.563 40.7361 174.161 40.879 171.778C41.1925 166.531 41.506 161.405 41.778 156.347C43.6221 155.937 45.4754 155.536 47.3426 155.158C47.066 160.962 46.7525 166.845 46.4251 172.884V172.88Z" fill="white"/>
<path d="M68.5174 166.038C66.5073 166.407 64.5019 166.794 62.4918 167.186C62.5379 166.181 62.5794 165.18 62.6255 164.185C62.7085 162.188 62.7869 160.206 62.8699 158.237C62.9067 157.255 62.9482 156.269 62.9805 155.291C65.4332 154.775 67.872 154.291 70.32 153.825C70.3338 153.369 70.3523 152.913 70.3615 152.456C70.4122 150.972 70.4583 149.487 70.4952 148.012C68.061 148.487 65.6222 148.985 63.1834 149.501C63.4093 142.871 63.5706 136.339 63.6352 129.829C60.8091 130.475 57.983 131.166 55.1569 131.881C55.0601 138.358 54.8572 144.854 54.5945 151.447C54.0827 151.566 53.571 151.691 53.0593 151.811C53.027 152.548 52.9947 153.291 52.9624 154.038C52.9117 155.176 52.8656 156.315 52.8103 157.458C52.8103 157.491 52.8103 157.523 52.8103 157.555C53.0685 157.491 53.3266 157.435 53.5802 157.375C53.8384 157.315 54.0966 157.26 54.3547 157.196C54.3179 158.035 54.2764 158.878 54.2395 159.722C54.1242 162.253 53.9997 164.802 53.8753 167.366C53.7877 169.076 53.7047 170.791 53.6171 172.52C53.5295 174.249 53.4465 175.987 53.3589 177.739C56.1297 177.172 58.905 176.628 61.6804 176.107C63.2571 175.807 64.8338 175.521 66.4151 175.24C68.0287 174.954 69.6423 174.678 71.2605 174.41C72.2517 174.244 73.2521 174.083 74.2433 173.926C74.2987 172.446 74.3494 170.976 74.4001 169.505C74.4001 169.454 74.4001 169.403 74.4093 169.357C74.46 167.896 74.5107 166.439 74.5568 164.987C72.5514 165.328 70.5413 165.678 68.5312 166.043L68.5174 166.038ZM72.7819 172.64C67.0421 173.567 61.058 174.659 54.9356 175.885L55.0509 173.539C55.3367 167.914 55.5995 162.608 55.8346 157.255L55.9268 155.287L54.387 155.642C54.4147 155.01 54.4423 154.379 54.47 153.747C59.2185 152.848 64.0316 152.037 68.9001 151.308C68.8862 151.728 68.8724 152.152 68.8586 152.576C66.8116 152.968 64.7324 153.387 62.6716 153.816L61.5237 154.056L61.4776 155.227C61.3439 158.74 61.1917 162.52 60.9889 167.121L60.9059 169.016L62.7684 168.652C66.2307 167.97 69.6561 167.333 72.9847 166.766C72.9156 168.707 72.851 170.667 72.7773 172.644L72.7819 172.64Z" fill="white"/>
<path d="M102.135 162.871C100.817 157.786 99.4983 152.83 98.1752 147.952C98.0784 147.602 97.9862 147.251 97.8894 146.901C100.176 138.879 102.389 131.032 104.551 123.195C101.656 123.467 98.7607 123.781 95.8655 124.136C94.0951 130.548 92.2741 136.975 90.4023 143.499C89.3005 143.642 88.2032 143.798 87.1014 143.955C87.212 137.676 87.2858 131.489 87.2996 125.311C84.4597 125.745 81.6198 126.215 78.7753 126.722C78.743 134.407 78.6047 142.116 78.4018 149.985C78.3327 152.834 78.2497 155.711 78.1575 158.616C78.093 160.764 78.0238 162.931 77.9547 165.116C77.9316 165.844 77.9039 166.573 77.8855 167.306C77.8855 167.343 77.8855 167.375 77.8809 167.417C77.821 169.339 77.7564 171.275 77.6873 173.23C77.6873 173.285 77.6873 173.331 77.6873 173.387C79.1395 173.166 80.6009 172.958 82.0578 172.751C82.7862 172.654 83.5146 172.552 84.243 172.451C84.9668 172.354 85.6953 172.257 86.4237 172.16C86.479 170.279 86.5297 168.408 86.5804 166.559C86.5989 165.941 86.6173 165.323 86.6311 164.71C86.7418 160.612 86.8432 156.582 86.9354 152.599C87.6684 152.498 88.4061 152.396 89.1437 152.3C89.5125 152.244 89.8814 152.198 90.2502 152.152C91.0754 155.232 91.9006 158.344 92.7213 161.506C93.1316 163.088 93.5419 164.678 93.9522 166.282C94.1597 167.089 94.3671 167.896 94.57 168.707C94.7774 169.519 94.9849 170.335 95.1877 171.146C96.6676 170.989 98.1429 170.842 99.6182 170.708C101.093 170.575 102.569 170.445 104.044 170.326C103.781 169.288 103.518 168.256 103.256 167.228C102.882 165.766 102.504 164.309 102.131 162.871H102.135ZM96.3219 169.528C94.8143 163.581 93.2975 157.753 91.6932 151.769L91.352 150.506L90.0565 150.672C88.9132 150.82 87.7975 150.972 86.7279 151.119L85.4694 151.295L85.4371 152.567C85.2988 158.809 85.1236 165.24 84.9668 170.851C83.0766 171.1 81.1634 171.368 79.2409 171.644C79.4991 164.088 79.7342 156.864 79.9094 149.805C85.4463 149.128 91.0293 148.551 96.6676 148.081C98.544 155.006 100.351 161.87 102.172 168.979C100.227 169.145 98.2674 169.325 96.3265 169.528H96.3219Z" fill="white"/>
<path d="M132.766 163.442C132.568 162.281 132.369 161.128 132.167 159.98C131.991 158.971 131.816 157.966 131.641 156.956C131.198 154.416 130.756 151.903 130.313 149.409C130.152 148.487 129.991 147.569 129.825 146.661C128.34 138.294 126.865 130.143 125.385 122.006C121.581 122.089 117.778 122.245 113.979 122.476C112.509 130.65 110.992 138.838 109.429 147.224C109.258 148.16 109.079 149.091 108.908 150.031C108.613 151.622 108.318 153.222 108.014 154.831C107.248 158.915 106.474 163.064 105.69 167.287C105.51 168.265 105.33 169.256 105.141 170.243C105.925 170.183 106.713 170.127 107.497 170.072C109.295 169.948 111.098 169.832 112.896 169.74C113.255 169.712 113.615 169.694 113.975 169.676C114.602 166.278 115.219 162.926 115.833 159.63C116.45 159.593 117.068 159.565 117.681 159.542C118.935 159.487 120.189 159.441 121.443 159.404C122.043 159.381 122.642 159.362 123.246 159.349C123.661 161.787 124.076 164.263 124.491 166.766C124.629 167.601 124.767 168.44 124.91 169.279C125.431 169.27 125.943 169.261 126.464 169.251C127.058 169.242 127.649 169.233 128.248 169.228C130.087 169.21 131.927 169.205 133.766 169.219C133.434 167.274 133.098 165.347 132.771 163.438L132.766 163.442ZM117.893 146.869C118.493 141.424 119.083 136.067 119.659 130.737C120.217 136.03 120.761 141.35 121.305 146.763C121.416 147.897 121.535 149.031 121.651 150.179C121.664 150.289 121.674 150.409 121.688 150.525C120.987 150.552 120.286 150.575 119.581 150.598C118.875 150.621 118.175 150.654 117.474 150.686C117.617 149.409 117.76 148.136 117.898 146.869H117.893ZM131.526 167.721C129.751 167.721 127.957 167.739 126.173 167.767C125.689 164.844 125.201 161.935 124.716 159.104L124.5 157.827L123.204 157.859C120.687 157.924 118.179 158.016 115.759 158.136L114.574 158.196L114.357 159.358C113.813 162.285 113.265 165.245 112.711 168.256C110.803 168.362 108.876 168.481 106.958 168.615C107.88 163.659 108.779 158.809 109.673 154.047C110.107 151.723 110.535 149.427 110.959 147.154C112.762 147.062 114.569 146.989 116.381 146.929C116.257 148.1 116.118 149.298 115.985 150.534L115.791 152.267L117.538 152.189C118.986 152.124 120.401 152.074 121.734 152.032L123.338 151.981L123.177 150.386C123.057 149.174 122.932 147.957 122.812 146.744C124.647 146.707 126.478 146.68 128.317 146.675C129.502 153.36 130.742 160.409 132.001 167.735C131.849 167.73 131.692 167.73 131.535 167.73L131.526 167.721Z" fill="white"/>
<path d="M162.866 167.052C162.843 165.863 162.82 164.674 162.797 163.493C162.774 162.313 162.755 161.138 162.732 159.967C162.714 158.796 162.691 157.634 162.672 156.472C162.631 154.102 161.976 152.051 160.713 150.317C160.501 150.027 160.275 149.75 160.031 149.478C159.906 149.34 159.777 149.206 159.648 149.077C159.514 148.943 159.385 148.814 159.247 148.69C159.353 148.607 159.459 148.528 159.561 148.441C159.653 148.372 159.736 148.298 159.823 148.215C159.833 148.215 159.842 148.201 159.851 148.192C159.939 148.123 160.017 148.044 160.1 147.961C160.188 147.878 160.266 147.795 160.349 147.708C160.358 147.699 160.367 147.689 160.372 147.68C161.801 146.14 162.493 144.144 162.465 141.687C162.419 137.708 162.382 133.753 162.364 129.815C162.354 128.087 161.723 126.538 160.469 125.187C159.229 123.854 157.749 123.112 156.038 122.965C149.736 122.439 143.425 122.107 137.113 121.987C137.113 130.157 137.127 138.321 137.15 146.694C137.15 147.611 137.15 148.528 137.15 149.446C137.15 150.953 137.159 152.475 137.164 154.001C137.169 155.997 137.173 157.998 137.182 160.026C137.182 162.235 137.196 164.457 137.201 166.707C137.205 167.555 137.21 168.408 137.215 169.261C140.128 169.311 143.028 169.394 145.942 169.519C145.9 165.065 145.868 160.709 145.836 156.426C145.836 155.707 145.827 154.997 145.822 154.282C145.813 153.577 145.808 152.881 145.804 152.18C146.066 152.194 146.329 152.203 146.587 152.221C147.136 152.244 147.68 152.272 148.224 152.304C149.114 152.35 150.004 152.401 150.893 152.452C150.999 152.452 151.096 152.47 151.202 152.484C151.4 152.516 151.594 152.558 151.778 152.627C152.249 152.793 152.677 153.07 153.065 153.461C153.613 154.038 153.922 154.697 154.001 155.435C154.001 155.49 154.01 155.541 154.014 155.591C154.014 155.647 154.014 155.697 154.024 155.753C154.024 156.334 154.037 156.919 154.042 157.5C154.056 158.666 154.07 159.837 154.084 161.013C154.093 161.608 154.102 162.198 154.107 162.788C154.125 163.973 154.139 165.162 154.157 166.352C154.167 166.951 154.176 167.555 154.18 168.159C154.19 168.758 154.199 169.358 154.208 169.966C154.936 170.017 155.66 170.068 156.389 170.118C157.117 170.169 157.846 170.224 158.574 170.28C160.026 170.39 161.483 170.515 162.94 170.648C162.917 169.445 162.894 168.242 162.875 167.048V167.057L162.866 167.052ZM153.816 131.282C153.83 134.486 153.848 137.708 153.872 140.949C153.881 141.788 153.576 142.475 152.968 143.001C152.899 143.065 152.83 143.121 152.756 143.176C152.641 143.268 152.516 143.342 152.392 143.411C152.341 143.443 152.286 143.471 152.235 143.485C152.046 143.582 151.843 143.642 151.636 143.688C151.447 143.729 151.248 143.748 151.041 143.748C150.972 143.748 150.903 143.748 150.829 143.738C149.141 143.632 147.445 143.545 145.753 143.462C145.73 139.197 145.711 134.979 145.702 130.784C148.408 130.917 151.11 131.079 153.821 131.282H153.816ZM155.679 168.569C155.619 164.213 155.563 159.939 155.513 155.739C155.499 154.503 155.029 153.36 154.153 152.433L154.134 152.42L154.12 152.401C153.235 151.516 152.18 151.027 150.986 150.958C149.174 150.852 147.496 150.76 145.873 150.686L144.296 150.617L144.31 152.189C144.342 156.758 144.374 161.672 144.43 167.965C142.572 167.896 140.659 167.841 138.704 167.799C138.681 160.953 138.658 153.89 138.644 146.726C145.227 146.841 151.778 147.118 158.284 147.547L156.905 148.579L158.242 149.801C160.174 151.562 161.133 153.752 161.179 156.504C161.243 160.404 161.317 164.517 161.405 169.021C159.505 168.86 157.587 168.708 155.679 168.574V168.569Z" fill="white"/>
<path d="M192.653 165.628C192.556 163.143 192.468 160.677 192.381 158.228C192.381 158.049 192.362 157.873 192.353 157.694C192.339 157.555 192.33 157.417 192.312 157.274C192.312 157.223 192.307 157.177 192.298 157.127C192.289 157.021 192.275 156.919 192.261 156.818C192.247 156.707 192.233 156.606 192.215 156.504C192.201 156.407 192.183 156.306 192.164 156.209C192.127 155.997 192.081 155.785 192.03 155.578C191.994 155.402 191.952 155.227 191.906 155.061C191.906 155.024 191.888 154.997 191.878 154.964C191.841 154.831 191.809 154.702 191.768 154.577C191.74 154.49 191.712 154.411 191.685 154.328C191.629 154.158 191.569 153.987 191.505 153.816C191.44 153.637 191.362 153.457 191.284 153.282C191.219 153.125 191.145 152.968 191.072 152.821C191.03 152.733 190.989 152.645 190.947 152.558C190.859 152.392 190.776 152.226 190.68 152.06C190.541 151.82 190.403 151.585 190.251 151.35C190.182 151.244 190.113 151.133 190.039 151.032C190.025 151.018 190.016 151.004 190.007 150.99C189.984 150.954 189.956 150.917 189.933 150.88C189.91 150.852 189.891 150.829 189.868 150.806C189.416 150.17 188.895 149.557 188.315 148.966C185.885 146.518 182.911 145.002 179.366 144.453C176.655 144.038 175.281 142.858 175.254 140.876C175.212 138.455 175.185 136.039 175.157 133.637C177.854 134.029 180.556 134.458 183.243 134.924C183.276 137.238 183.312 139.562 183.359 141.899C186.217 142.378 189.071 142.895 191.929 143.453C191.86 140.396 191.791 137.344 191.749 134.311C191.726 132.596 191.085 131.005 189.827 129.548C188.582 128.11 187.111 127.229 185.401 126.916C181.229 126.15 177.052 125.473 172.87 124.873C172.552 124.827 172.239 124.804 171.934 124.804C170.616 124.804 169.454 125.233 168.449 126.086C167.195 127.155 166.573 128.557 166.582 130.29C166.605 133.439 166.633 136.597 166.669 139.769C166.711 143.167 167.914 146.067 170.293 148.496C170.316 148.524 170.339 148.547 170.362 148.575C170.431 148.644 170.505 148.718 170.579 148.791C170.883 149.086 171.192 149.363 171.515 149.626C171.672 149.759 171.833 149.889 171.999 150.008C172.654 150.506 173.35 150.949 174.078 151.336C174.627 151.627 175.194 151.885 175.779 152.106C176.365 152.332 176.973 152.526 177.6 152.687C178.227 152.844 178.873 152.977 179.541 153.074C179.712 153.102 179.882 153.13 180.044 153.166C182.437 153.651 183.658 154.845 183.714 156.739C183.783 159.215 183.856 161.709 183.939 164.231C183.253 164.125 182.57 164.024 181.883 163.918C179.827 163.609 177.766 163.323 175.715 163.051C175.664 161.211 175.623 159.381 175.576 157.56C175.558 156.956 175.544 156.347 175.53 155.748C173.368 155.453 171.206 155.186 169.048 154.932C168.689 154.891 168.329 154.845 167.97 154.812C167.61 154.771 167.246 154.729 166.886 154.692C166.932 157.085 166.978 159.492 167.024 161.926C167.043 162.737 167.061 163.553 167.08 164.365C167.084 164.706 167.117 165.047 167.167 165.374C167.181 165.485 167.204 165.596 167.227 165.702C167.273 165.923 167.324 166.135 167.389 166.347C167.49 166.67 167.605 166.979 167.744 167.283C168.071 167.998 168.523 168.675 169.099 169.312C169.182 169.404 169.26 169.487 169.348 169.574C169.509 169.745 169.68 169.902 169.851 170.054C170.713 170.814 171.662 171.326 172.709 171.603C172.916 171.658 173.128 171.7 173.345 171.737C173.456 171.755 173.562 171.769 173.668 171.783C174.198 171.852 174.737 171.916 175.272 171.981C175.802 172.05 176.342 172.119 176.881 172.184C178.098 172.34 179.32 172.502 180.546 172.677C182.377 172.931 184.207 173.193 186.037 173.479C186.198 173.502 186.355 173.53 186.521 173.548C186.53 173.548 186.544 173.548 186.553 173.548C186.65 173.562 186.747 173.571 186.844 173.581C186.941 173.59 187.033 173.599 187.13 173.604C187.171 173.608 187.217 173.608 187.254 173.613C187.296 173.613 187.342 173.613 187.379 173.613C187.434 173.617 187.48 173.617 187.535 173.617C187.582 173.617 187.623 173.608 187.66 173.608C187.812 173.608 187.964 173.594 188.107 173.581C188.199 173.571 188.282 173.562 188.365 173.548C188.508 173.53 188.642 173.498 188.776 173.465C188.831 173.456 188.886 173.447 188.942 173.433C189.002 173.419 189.052 173.401 189.112 173.382C189.204 173.355 189.287 173.322 189.38 173.29C189.522 173.235 189.665 173.18 189.804 173.11C189.942 173.046 190.076 172.972 190.205 172.889C190.472 172.732 190.726 172.539 190.97 172.327C191.039 172.262 191.113 172.202 191.178 172.128C191.523 171.801 191.809 171.428 192.035 171.031C192.127 170.874 192.21 170.708 192.284 170.538C192.353 170.367 192.418 170.192 192.473 170.012C192.556 169.74 192.611 169.459 192.657 169.164C192.676 169.021 192.694 168.864 192.704 168.712C192.717 168.472 192.722 168.228 192.713 167.979C192.685 167.191 192.653 166.398 192.625 165.609H192.634L192.653 165.628ZM190.011 171.22C189.31 171.838 188.513 172.138 187.559 172.138C187.305 172.138 187.042 172.115 186.77 172.073C182.409 171.405 178.071 170.814 173.875 170.307C172.483 170.141 171.294 169.491 170.238 168.316C169.168 167.126 168.633 165.817 168.601 164.337C168.546 161.654 168.495 158.998 168.444 156.371C170.325 156.587 172.22 156.822 174.101 157.071C174.147 159.068 174.203 161.073 174.249 163.097L174.286 164.374L175.549 164.54C178.273 164.9 181.035 165.301 183.737 165.72L185.521 165.997L185.461 164.194C185.378 161.672 185.309 159.178 185.235 156.702C185.189 155.098 184.424 152.309 179.79 151.608C177.07 151.207 174.77 150.262 172.824 148.745C177.835 149.243 182.805 149.829 187.724 150.502C189.748 152.733 190.795 155.292 190.901 158.284C190.998 161.096 191.108 164.111 191.256 168.053C191.311 169.427 190.915 170.432 190.02 171.22H190.016H190.011Z" fill="white"/>
<path d="M221.905 174.599C219.913 168.435 217.936 162.304 216.032 156.227C216.091 156.001 216.147 155.775 216.211 155.545C216.221 155.503 216.23 155.462 216.244 155.43C217.977 148.699 219.738 142.129 221.61 135.643C218.752 134.794 215.893 133.983 213.026 133.208C211.389 138.787 209.831 144.416 208.3 150.16C207.198 149.897 206.101 149.639 205.004 149.39C204.778 143.208 204.612 137.104 204.529 131.023C201.703 130.332 198.877 129.672 196.046 129.059C196.111 136.574 196.3 144.116 196.553 151.801C196.622 153.719 196.692 155.646 196.756 157.587C196.825 159.524 196.904 161.474 196.982 163.433C197.065 165.402 197.139 167.375 197.222 169.362C197.309 171.349 197.388 173.354 197.475 175.374C198.932 175.636 200.398 175.904 201.855 176.176C203.312 176.452 204.773 176.729 206.23 177.019C206.156 175.387 206.078 173.774 206 172.169C205.884 169.749 205.769 167.361 205.659 164.977C205.552 162.599 205.442 160.238 205.345 157.892C206.451 158.136 207.549 158.385 208.655 158.643C210.721 165.291 212.855 172.017 214.999 178.831C216.479 179.145 217.963 179.472 219.439 179.799C220.918 180.122 222.403 180.459 223.883 180.786C223.219 178.725 222.55 176.664 221.891 174.608L221.905 174.599ZM216.17 177.54L214.944 173.663C213.335 168.569 211.67 163.295 210.08 158.187L209.822 157.366L208.987 157.177C207.876 156.919 206.765 156.67 205.654 156.425L203.754 156.001L203.842 157.947C204.073 163.276 204.322 168.583 204.594 174.189L204.64 175.175C202.662 174.797 200.772 174.442 198.918 174.101C198.614 166.817 198.31 159.427 198.061 152.032C203.718 152.954 209.296 153.982 214.778 155.121C214.713 155.365 214.653 155.605 214.589 155.849L214.483 156.26L214.607 156.665C216.608 163.041 218.719 169.597 220.762 175.931C221.066 176.867 221.366 177.803 221.67 178.744C219.738 178.31 217.917 177.909 216.17 177.531V177.54Z" fill="white"/>
<path d="M252.909 185.147C251.604 180.011 250.235 174.825 248.875 169.597C246.524 160.57 244.172 151.442 242.149 142.3C238.4 140.986 234.652 139.723 230.909 138.515C229.853 144.978 228.908 151.479 228.009 158.108C227.834 159.408 227.654 160.713 227.483 162.027C227.4 162.635 227.322 163.249 227.239 163.866C227.078 165.093 226.916 166.328 226.75 167.564C226.667 168.182 226.589 168.799 226.506 169.422C226.1 172.529 225.69 175.673 225.27 178.854C225.174 179.578 225.081 180.302 224.985 181.03C225.413 181.132 225.842 181.229 226.271 181.33C227.317 181.57 228.364 181.814 229.415 182.063C230.89 182.404 232.366 182.755 233.841 183.105C233.942 182.377 234.039 181.643 234.141 180.915C234.334 179.458 234.528 178.011 234.721 176.563C234.818 175.839 234.91 175.125 235.007 174.405H235.012C236.252 174.728 237.492 175.06 238.732 175.392C239.973 175.729 241.213 176.06 242.457 176.397C243.241 179.527 244.025 182.644 244.786 185.756C245.708 185.982 246.63 186.212 247.547 186.438C249.566 186.941 251.59 187.434 253.614 187.936C253.379 187.005 253.144 186.079 252.909 185.143V185.147ZM236.017 166.591C236.284 160.501 236.552 154.48 236.907 148.491C237.58 152.659 238.294 156.822 239.032 160.994C239.032 161.008 239.032 161.026 239.041 161.04C239.299 162.488 239.558 163.94 239.816 165.397C239.959 166.199 240.106 167.006 240.249 167.813C238.838 167.407 237.423 167.001 236.017 166.596V166.591ZM250.516 185.636C249.018 185.267 247.519 184.898 246.021 184.53C245.297 181.593 244.578 178.721 243.905 176.037L243.693 175.189L242.849 174.963C240.392 174.29 237.884 173.617 235.39 172.958L233.749 172.524L233.527 174.207C233.214 176.54 232.9 178.896 232.582 181.27C230.466 180.768 228.507 180.307 226.649 179.878C226.907 177.9 227.165 175.936 227.419 173.986C228.11 168.698 228.783 163.544 229.475 158.468C231.278 158.91 233.066 159.371 234.832 159.846C234.726 162.105 234.625 164.341 234.528 166.526L234.472 167.711L235.611 168.029C237.151 168.467 238.534 168.868 239.834 169.247L242.153 169.924L241.724 167.545C241.342 165.42 240.982 163.396 240.632 161.441C242.296 161.912 243.956 162.396 245.592 162.894C246.468 166.287 247.349 169.666 248.22 172.999C249.331 177.241 250.47 181.602 251.558 185.885L250.521 185.627L250.516 185.636Z" fill="white"/>
<path d="M34.5537 158.035C33.9129 159.602 32.9125 161.087 31.5386 162.516C29.2427 164.909 26.389 166.605 23.0511 167.564C21.6773 167.956 20.3034 168.352 18.9296 168.753L17.9384 169.044L17.86 170.077C17.4866 174.963 17.127 179.758 16.8089 184.604C14.9233 185.069 13.0377 185.535 11.1521 186C11.5578 179.933 12.0741 173.788 12.5721 167.827C12.6781 166.582 12.7795 165.328 12.8856 164.069C14.7204 163.489 16.5737 162.926 18.4455 162.378L18.3072 164.217L20.4049 163.567C21.7649 163.143 23.1249 162.723 24.4803 162.308C26.8131 161.598 28.1639 160.552 28.9154 159.464C30.7733 158.975 32.6543 158.505 34.5491 158.044L34.5537 158.035Z" fill="#B3B3B3"/>
<path d="M47.3425 155.158C47.0659 160.962 46.7524 166.845 46.425 172.884C46.3328 174.488 46.2499 176.102 46.1623 177.72C44.249 178.135 42.3404 178.559 40.4456 178.983C40.5839 176.568 40.7314 174.166 40.8743 171.782C41.1878 166.536 41.5013 161.409 41.7733 156.352C43.6174 155.941 45.4707 155.54 47.3379 155.162L47.3425 155.158Z" fill="#B3B3B3"/>
<path d="M72.9942 166.766C72.925 168.707 72.8559 170.667 72.7867 172.644C67.0469 173.571 61.0628 174.664 54.9358 175.89L55.0511 173.543C55.3369 167.919 55.5997 162.612 55.8348 157.26L55.927 155.291L54.3872 155.646C54.4149 155.015 54.4425 154.383 54.4702 153.752C59.2187 152.853 64.0318 152.041 68.9003 151.313C68.8864 151.732 68.8726 152.156 68.8588 152.581C66.8118 152.972 64.7326 153.392 62.6718 153.821L61.5239 154.06L61.4778 155.231C61.3441 158.744 61.1919 162.525 60.9937 167.126L60.9107 169.021L62.7732 168.656C66.2355 167.974 69.661 167.338 72.9896 166.771L72.9942 166.766Z" fill="#B3B3B3"/>
<path d="M102.168 168.979C100.222 169.145 98.2628 169.33 96.3219 169.528C94.8143 163.581 93.2976 157.753 91.6886 151.769L91.3474 150.506L90.052 150.672C88.9086 150.82 87.7929 150.972 86.7234 151.119L85.4648 151.294L85.4325 152.567C85.2896 158.809 85.119 165.24 84.9623 170.851C83.0721 171.1 81.1588 171.367 79.2363 171.644C79.4945 164.088 79.7296 156.864 79.9048 149.801C85.4417 149.123 91.0247 148.547 96.6631 148.076C98.544 155.001 100.347 161.866 102.168 168.975V168.979Z" fill="#B3B3B3"/>
<path d="M131.991 167.725C131.839 167.725 131.683 167.725 131.526 167.725C129.751 167.725 127.957 167.744 126.173 167.772C125.689 164.844 125.201 161.94 124.716 159.109L124.5 157.832L123.204 157.864C120.687 157.929 118.179 158.021 115.759 158.136L114.574 158.196L114.357 159.358C113.813 162.285 113.265 165.245 112.716 168.256C110.807 168.362 108.88 168.482 106.962 168.615C107.884 163.659 108.783 158.809 109.673 154.047C110.107 151.723 110.535 149.427 110.959 147.155C112.762 147.062 114.569 146.989 116.381 146.929C116.257 148.1 116.118 149.298 115.985 150.534L115.791 152.267L117.538 152.189C118.986 152.124 120.401 152.074 121.734 152.032L123.338 151.981L123.177 150.386C123.057 149.169 122.932 147.957 122.812 146.744C124.647 146.707 126.478 146.68 128.312 146.675C129.502 153.36 130.737 160.409 131.996 167.735L131.991 167.725Z" fill="#B3B3B3"/>
<path d="M161.409 169.016C159.51 168.855 157.592 168.707 155.683 168.569C155.623 164.212 155.568 159.939 155.517 155.739C155.503 154.503 155.033 153.36 154.157 152.433L154.139 152.419L154.125 152.401C153.24 151.516 152.184 151.027 150.99 150.958C149.178 150.847 147.5 150.76 145.877 150.686L144.301 150.617L144.314 152.189C144.347 156.757 144.379 161.672 144.434 167.965C142.576 167.896 140.663 167.841 138.708 167.799C138.685 160.953 138.662 153.89 138.648 146.726C145.232 146.841 151.783 147.117 158.288 147.546L156.91 148.579L158.247 149.796C160.178 151.557 161.137 153.747 161.183 156.499C161.248 160.4 161.322 164.512 161.409 169.016Z" fill="#B3B3B3"/>
<path d="M191.247 168.053C191.302 169.426 190.906 170.431 190.011 171.22C189.311 171.838 188.513 172.137 187.559 172.137C187.305 172.137 187.042 172.114 186.77 172.073C182.409 171.404 178.071 170.814 173.871 170.307C172.479 170.141 171.289 169.491 170.233 168.315C169.164 167.126 168.629 165.817 168.597 164.337C168.541 161.654 168.491 158.998 168.44 156.37C170.321 156.587 172.216 156.822 174.097 157.071C174.143 159.067 174.198 161.073 174.244 163.097L174.281 164.374L175.544 164.54C178.269 164.899 181.031 165.3 183.732 165.715L185.516 165.992L185.456 164.189C185.373 161.667 185.304 159.173 185.23 156.698C185.184 155.098 184.419 152.304 179.786 151.603C177.066 151.202 174.765 150.257 172.82 148.74C177.831 149.238 182.801 149.824 187.72 150.497C189.744 152.728 190.79 155.287 190.896 158.283C190.993 161.096 191.104 164.111 191.251 168.048L191.247 168.053Z" fill="#B3B3B3"/>
<path d="M221.67 178.753C219.738 178.32 217.917 177.919 216.17 177.54L214.948 173.663C213.339 168.569 211.675 163.295 210.084 158.187L209.826 157.366L208.991 157.177C207.88 156.919 206.769 156.67 205.658 156.426L203.759 156.001L203.846 157.947C204.077 163.276 204.326 168.583 204.598 174.189L204.644 175.175C202.666 174.797 200.776 174.442 198.923 174.101C198.618 166.817 198.314 159.427 198.065 152.032C203.722 152.954 209.3 153.982 214.782 155.121C214.717 155.365 214.657 155.605 214.593 155.849L214.487 156.26L214.611 156.665C216.612 163.041 218.724 169.597 220.766 175.931C221.07 176.867 221.37 177.803 221.674 178.744L221.67 178.753Z" fill="#B3B3B3"/>
<path d="M251.553 185.894L250.516 185.636C249.018 185.267 247.52 184.899 246.021 184.53C245.297 181.593 244.578 178.721 243.905 176.038L243.693 175.189L242.849 174.963C240.392 174.29 237.884 173.617 235.395 172.958L233.749 172.525L233.527 174.207C233.214 176.54 232.9 178.896 232.582 181.27C230.466 180.768 228.507 180.307 226.649 179.878C226.907 177.9 227.165 175.936 227.419 173.986C228.11 168.698 228.783 163.544 229.475 158.468C231.278 158.911 233.066 159.372 234.832 159.846C234.726 162.105 234.625 164.341 234.528 166.527L234.473 167.712L235.611 168.03C237.151 168.468 238.534 168.869 239.834 169.247L242.153 169.924L241.724 167.546C241.342 165.42 240.982 163.396 240.632 161.442C242.296 161.912 243.956 162.396 245.592 162.894C246.468 166.287 247.349 169.666 248.22 173C249.331 177.241 250.47 181.602 251.558 185.885L251.553 185.894Z" fill="#B3B3B3"/>
</g>
</g>
<path d="M1268.48 114.595H1253.96L1251.24 131.709H1232.95L1248.65 52.038H1274.38L1290.31 131.709H1271.31L1268.48 114.595ZM1256.32 99.2506H1266.12C1264.23 87.5655 1262.46 74.582 1261.51 67.2641H1260.92C1260.1 74.9361 1258.21 87.5655 1256.32 99.2506Z" fill="#CCA447"/>
<path d="M1178.21 131.709V52.038H1196.03V85.2049C1199.93 77.1787 1207.6 61.0084 1212.32 52.038H1232.62L1214.56 83.1983L1232.98 131.709H1213.03L1201.7 99.0146L1196.03 107.513V131.709H1178.21Z" fill="#CCA447"/>
<path d="M1118.3 108.575H1136.36C1136.83 115.185 1138.61 119.67 1144.15 119.67C1149.46 119.67 1151.12 116.129 1151.12 111.526C1151.12 106.096 1148.4 102.792 1138.96 97.9523C1125.15 90.8704 1119.96 84.8508 1119.96 73.1656C1119.96 59.4739 1128.22 50.5035 1144.03 50.5035C1162.68 50.5035 1168 62.1887 1168.11 74.3459H1150.53C1150.17 68.7985 1149.11 64.0772 1143.92 64.0772C1139.9 64.0772 1138.02 66.6739 1138.02 71.1591C1138.02 75.7623 1139.79 78.123 1148.52 82.3721C1163.27 89.8081 1169.53 96.1818 1169.53 109.519C1169.53 122.739 1161.86 133.244 1143.92 133.244C1124.56 133.244 1118.66 122.149 1118.3 108.575Z" fill="#CCA447"/>
<path d="M1083.52 99.1326H1079.5V131.709H1061.45V52.038H1088.36C1103.7 52.038 1111.61 59.592 1111.61 74.1099C1111.61 85.0868 1106.18 90.2802 1101.34 92.1687C1107.6 95.0015 1110.55 100.077 1110.55 111.526V114.359C1110.55 123.211 1110.9 128.168 1111.37 131.709H1093.67C1092.72 128.641 1092.37 121.559 1092.37 113.769V111.054C1092.37 101.611 1090.48 99.1326 1083.52 99.1326ZM1079.5 65.6116V85.3229H1083.75C1090.72 85.3229 1093.31 82.8442 1093.31 75.0541C1093.31 68.5624 1090.95 65.6116 1084.93 65.6116H1079.5Z" fill="#CCA447"/>
<path d="M1033.45 114.595H1018.93L1016.22 131.709H997.923L1013.62 52.038H1039.35L1055.29 131.709H1036.28L1033.45 114.595ZM1021.29 99.2506H1031.09C1029.2 87.5655 1027.43 74.582 1026.49 67.2641H1025.9C1025.07 74.9361 1023.18 87.5655 1021.29 99.2506Z" fill="#CCA447"/>
<path d="M943.184 131.709V52.038H961.006V85.2049C964.901 77.1787 972.574 61.0084 977.295 52.038H997.596L979.537 83.1983L997.95 131.709H978.003L966.672 99.0146L961.006 107.513V131.709H943.184Z" fill="#CCA447"/>
<path d="M923.518 86.2672L911.597 92.4048V116.837H936.855L935.203 131.709H893.302V101.729L886.22 105.388V93.231L893.302 89.572V52.038H911.597V80.2475L923.518 74.2279V86.2672Z" fill="#CCA447"/>
<path d="M861.691 52.038H879.986V131.709H861.691V52.038Z" fill="#CCA447"/>
<path d="M803.713 131.709V52.038H829.916C843.725 52.038 853.64 59.71 853.64 76.1164C853.64 92.7589 844.788 100.549 829.089 100.549H821.89V131.709H803.713ZM821.89 65.7296V86.6213H826.611C832.984 86.6213 835.345 83.5524 835.345 75.9984C835.345 68.5624 832.158 65.7296 827.083 65.7296H821.89Z" fill="#CCA447"/>
<path d="M755.084 114.595H740.567L737.852 131.709H719.557L735.255 52.038H760.986L776.92 131.709H757.917L755.084 114.595ZM742.927 99.2506H752.724C750.835 87.5655 749.065 74.582 748.121 67.2641H747.53C746.704 74.9361 744.816 87.5655 742.927 99.2506Z" fill="#CCA447"/>
<path d="M694.556 52.038H712.851V131.709H694.556V52.038Z" fill="#CCA447"/>
<path d="M665.263 131.709V106.215C665.263 93.8212 665.499 77.2967 665.736 67.6181H665.263C662.903 84.2606 659.598 111.29 655.939 131.709H641.185C638.352 110.464 635.047 83.5524 632.923 67.5001H632.333C632.687 76.8246 633.041 92.995 633.041 106.805V131.709H616.87V52.038H642.719C645.316 68.6804 647.913 88.6278 649.093 99.8408H649.447C650.982 87.9196 654.05 70.687 657.001 52.038H682.496V131.709H665.263Z" fill="#CCA447"/>
<path d="M606.328 82.9623V97.9523H582.132V116.955H609.515L607.391 131.709H564.191V52.038H607.391V67.028H582.132V82.9623H606.328Z" fill="#CCA447"/>
<path d="M502.178 131.709V52.038H524.959C545.732 52.038 554.23 63.8411 554.23 90.2802C554.23 118.608 545.85 131.709 524.25 131.709H502.178ZM520.591 66.0837V117.782H524.014C532.513 117.782 534.991 111.762 534.991 90.0442C534.991 71.8673 532.749 66.0837 524.132 66.0837H520.591Z" fill="#CCA447"/>
<path d="M474.183 114.595H459.665L456.95 131.709H438.655L454.353 52.038H480.084L496.019 131.709H477.016L474.183 114.595ZM462.026 99.2506H471.822C469.934 87.5655 468.163 74.582 467.219 67.2641H466.629C465.803 74.9361 463.914 87.5655 462.026 99.2506Z" fill="#CCA447"/>
<path d="M383.916 131.709V52.038H401.739V85.2049C405.634 77.1787 413.306 61.0084 418.027 52.038H438.329L420.27 83.1983L438.683 131.709H418.736L407.405 99.0146L401.739 107.513V131.709H383.916Z" fill="#CCA447"/>
<path d="M355.921 114.595H341.403L338.688 131.709H320.393L336.091 52.038H361.822L377.756 131.709H358.753L355.921 114.595ZM343.763 99.2506H353.56C351.671 87.5655 349.901 74.582 348.957 67.2641H348.367C347.54 74.9361 345.652 87.5655 343.763 99.2506Z" fill="#CCA447"/>
<path d="M1600.28 165.244C1618.59 165.244 1626.65 178.027 1626.65 205.09C1626.65 233.65 1618.94 245.972 1599.59 245.972C1581.51 245.972 1573.56 233.419 1573.56 204.744C1573.56 177.105 1582.43 165.244 1600.28 165.244ZM1600.05 179.409C1593.95 179.409 1592.22 186.549 1592.22 204.744C1592.22 223.861 1593.95 231.922 1600.05 231.922C1606.5 231.922 1607.99 224.437 1607.99 204.744C1607.99 186.203 1606.5 179.409 1600.05 179.409Z" fill="#17371E"/>
<path d="M1519.4 244.475V166.741H1536.79V199.101C1540.59 191.27 1548.08 175.493 1552.68 166.741H1572.49L1554.87 197.143L1572.84 244.475H1553.38L1542.32 212.575L1536.79 220.867V244.475H1519.4Z" fill="#17371E"/>
<path d="M1460.95 221.903H1478.57C1479.03 228.352 1480.76 232.728 1486.17 232.728C1491.36 232.728 1492.97 229.273 1492.97 224.782C1492.97 219.485 1490.32 216.26 1481.11 211.539C1467.63 204.629 1462.57 198.756 1462.57 187.355C1462.57 173.996 1470.63 165.244 1486.06 165.244C1504.26 165.244 1509.44 176.645 1509.55 188.506H1492.39C1492.05 183.094 1491.01 178.487 1485.94 178.487C1482.03 178.487 1480.19 181.021 1480.19 185.397C1480.19 189.888 1481.91 192.191 1490.44 196.337C1504.83 203.592 1510.93 209.811 1510.93 222.824C1510.93 235.722 1503.45 245.972 1485.94 245.972C1467.06 245.972 1461.3 235.147 1460.95 221.903Z" fill="#17371E"/>
<path d="M1452.33 196.913V211.539H1428.72V230.08H1455.44L1453.36 244.475H1411.21V166.741H1453.36V181.366H1428.72V196.913H1452.33Z" fill="#17371E"/>
<path d="M1356.58 244.475V233.074L1383.76 181.366H1358.65V166.741H1402.99V179.639L1377.43 229.849H1404.6L1402.53 244.475H1356.58Z" fill="#17371E"/>
<path d="M1322.99 212.69H1319.07V244.475H1301.45V166.741H1327.71C1342.68 166.741 1350.39 174.111 1350.39 188.276C1350.39 198.986 1345.1 204.053 1340.38 205.896C1346.48 208.66 1349.36 213.611 1349.36 224.782V227.546C1349.36 236.183 1349.7 241.02 1350.16 244.475H1332.89C1331.97 241.481 1331.62 234.571 1331.62 226.97V224.321C1331.62 215.109 1329.78 212.69 1322.99 212.69ZM1319.07 179.984V199.216H1323.22C1330.01 199.216 1332.54 196.798 1332.54 189.197C1332.54 182.863 1330.24 179.984 1324.37 179.984H1319.07Z" fill="#17371E"/>
<path d="M1243.31 244.475V166.741H1269.22C1283.15 166.741 1290.87 173.766 1290.87 186.664C1290.87 196.337 1286.49 200.944 1281.65 202.671C1287.18 204.974 1293.06 209.811 1293.06 221.442C1293.06 236.759 1283.61 244.475 1268.64 244.475H1243.31ZM1260.69 197.028H1265.53C1272.1 197.028 1273.59 194.379 1273.59 188.391C1273.59 182.288 1271.17 179.754 1265.65 179.754H1260.69V197.028ZM1260.69 209.581V231.577H1266.34C1271.87 231.577 1274.74 228.928 1274.74 220.751C1274.74 212.92 1272.44 209.581 1265.3 209.581H1260.69Z" fill="#17371E"/>
<path d="M1194.05 166.741H1211.9V244.475H1194.05V166.741Z" fill="#17371E"/>
<path d="M1136.02 244.475V166.741H1153.41V199.101C1157.21 191.27 1164.69 175.493 1169.3 166.741H1189.11L1171.49 197.143L1189.45 244.475H1169.99L1158.94 212.575L1153.41 220.867V244.475H1136.02Z" fill="#17371E"/>
<path d="M1077.57 221.903H1095.19C1095.65 228.352 1097.38 232.728 1102.79 232.728C1107.97 232.728 1109.58 229.273 1109.58 224.782C1109.58 219.485 1106.94 216.26 1097.72 211.539C1084.25 204.629 1079.18 198.756 1079.18 187.355C1079.18 173.996 1087.24 165.244 1102.68 165.244C1120.87 165.244 1126.05 176.645 1126.17 188.506H1109.01C1108.66 183.094 1107.63 178.487 1102.56 178.487C1098.64 178.487 1096.8 181.021 1096.8 185.397C1096.8 189.888 1098.53 192.191 1107.05 196.337C1121.45 203.592 1127.55 209.811 1127.55 222.824C1127.55 235.722 1120.06 245.972 1102.56 245.972C1083.67 245.972 1077.92 235.147 1077.57 221.903Z" fill="#17371E"/>
<path d="M1053.12 244.475V219.6C1053.12 207.508 1053.35 191.385 1053.58 181.942H1053.12C1050.82 198.18 1047.59 224.552 1044.02 244.475H1029.63C1026.86 223.746 1023.64 197.489 1021.56 181.827H1020.99C1021.33 190.925 1021.68 206.702 1021.68 220.176V244.475H1005.9V166.741H1031.12C1033.66 182.978 1036.19 202.441 1037.34 213.381H1037.69C1039.18 201.75 1042.18 184.936 1045.06 166.741H1069.93V244.475H1053.12Z" fill="#17371E"/>
<path d="M976.097 166.741H993.947V244.475H976.097V166.741Z" fill="#17371E"/>
<path d="M950.505 220.061H968.355C968.124 228.122 965.245 245.972 943.595 245.972C922.06 245.972 917.568 230.31 917.568 205.435C917.568 177.336 926.436 165.359 944.286 165.359C965.015 165.359 968.124 181.251 968.355 190.464H950.505C950.389 186.088 950.274 179.409 944.055 179.409C937.837 179.409 936.34 186.549 936.34 205.55C936.34 222.249 937.261 232.037 943.825 232.037C949.929 232.037 950.274 224.782 950.505 220.061Z" fill="#17371E"/>
<path d="M883.556 165.244C901.867 165.244 909.928 178.027 909.928 205.09C909.928 233.65 902.212 245.972 882.865 245.972C864.785 245.972 856.839 233.419 856.839 204.744C856.839 177.105 865.706 165.244 883.556 165.244ZM883.326 179.409C877.222 179.409 875.495 186.549 875.495 204.744C875.495 223.861 877.222 231.922 883.326 231.922C889.775 231.922 891.272 224.437 891.272 204.744C891.272 186.203 889.775 179.409 883.326 179.409Z" fill="#17371E"/>
<path d="M802.68 244.475V166.741H820.07V199.101C823.87 191.27 831.356 175.493 835.962 166.741H855.77L838.15 197.143L856.115 244.475H836.653L825.598 212.575L820.07 220.867V244.475H802.68Z" fill="#17371E"/>
<path d="M766.595 165.244C784.906 165.244 792.967 178.027 792.967 205.09C792.967 233.65 785.251 245.972 765.904 245.972C747.824 245.972 739.878 233.419 739.878 204.744C739.878 177.105 748.745 165.244 766.595 165.244ZM766.365 179.409C760.261 179.409 758.534 186.549 758.534 204.744C758.534 223.861 760.261 231.922 766.365 231.922C772.814 231.922 774.311 224.437 774.311 204.744C774.311 186.203 772.814 179.409 766.365 179.409Z" fill="#17371E"/>
<path d="M664.239 244.475V166.741H681.629V199.101C685.429 191.27 692.914 175.493 697.521 166.741H717.329L699.709 197.143L717.674 244.475H698.212L687.156 212.575L681.629 220.867V244.475H664.239Z" fill="#17371E"/>
<path d="M638.646 220.061H656.496C656.266 228.122 653.387 245.972 631.737 245.972C610.202 245.972 605.71 230.31 605.71 205.435C605.71 177.336 614.578 165.359 632.428 165.359C653.157 165.359 656.266 181.251 656.496 190.464H638.646C638.531 186.088 638.416 179.409 632.197 179.409C625.979 179.409 624.482 186.549 624.482 205.55C624.482 222.249 625.403 232.037 631.967 232.037C638.071 232.037 638.416 224.782 638.646 220.061Z" fill="#17371E"/>
<path d="M580.468 227.776H566.303L563.655 244.475H545.805L561.121 166.741H586.226L601.773 244.475H583.232L580.468 227.776ZM568.607 212.805H578.165C576.323 201.404 574.595 188.737 573.674 181.597H573.098C572.292 189.082 570.449 201.404 568.607 212.805Z" fill="#17371E"/>
<path d="M498.695 244.475V166.741H524.26C537.734 166.741 547.408 174.226 547.408 190.234C547.408 206.471 538.771 214.072 523.454 214.072H516.429V244.475H498.695ZM516.429 180.099V200.483H521.036C527.255 200.483 529.558 197.489 529.558 190.119C529.558 182.863 526.449 180.099 521.497 180.099H516.429Z" fill="#17371E"/>
<path d="M452.845 244.475H436.953V166.741H456.53C468.392 203.362 471.04 212.23 471.847 215.684H472.192C471.386 205.896 471.156 193.113 471.156 181.021V166.741H486.933V244.475H467.701C455.378 204.053 453.075 196.222 452.269 192.882H451.924C452.499 202.21 452.845 216.606 452.845 229.273V244.475Z" fill="#17371E"/>
<path d="M409.638 227.776H395.473L392.824 244.475H374.974L390.291 166.741H415.396L430.943 244.475H412.402L409.638 227.776ZM397.776 212.805H407.335C405.492 201.404 403.764 188.737 402.843 181.597H402.267C401.461 189.082 399.619 201.404 397.776 212.805Z" fill="#17371E"/>
<path d="M353.329 220.061H371.179C370.949 228.122 368.07 245.972 346.42 245.972C324.884 245.972 320.393 230.31 320.393 205.435C320.393 177.336 329.261 165.359 347.111 165.359C367.84 165.359 370.949 181.251 371.179 190.464H353.329C353.214 186.088 353.099 179.409 346.88 179.409C340.661 179.409 339.164 186.549 339.164 205.55C339.164 222.249 340.086 232.037 346.65 232.037C352.753 232.037 353.099 224.782 353.329 220.061Z" fill="#17371E"/>
<defs>
<clipPath id="clip0_1_342">
<rect width="264.393" height="296.476" fill="white"/>
</clipPath>
</defs>
</svg>
